<?xml version="1.0" encoding="iso-8859-1"?>
<!-- Generator: Adobe Illustrator 15.1.0, SVG Export Plug-In . SVG Version: 6.00 Build 0)  -->
<!DOCTYPE svg PUBLIC "-//W3C//DTD SVG 1.1//EN" "http://www.w3.org/Graphics/SVG/1.1/DTD/svg11.dtd">
<svg version="1.1" xmlns="http://www.w3.org/2000/svg" xmlns:xlink="http://www.w3.org/1999/xlink" x="0px" y="0px"
	 width="490.394px" height="297.638px" viewBox="0 0 490.394 297.638" style="enable-background:new 0 0 490.394 297.638;"
	 xml:space="preserve">
<style type="text/css">
<![CDATA[
]]>
</style>
<g id="Layer_1" style="display:none;">
	
		<image style="display:inline;overflow:visible;" width="772" height="679" xlink:href="B4ABE584.jpg"  transform="matrix(0.5334 0 0 0.5334 -0.0137 -32.2871)">
	</image>
</g>
<g id="Rum">
	<polygon id="Annum" style="fill:#3399FF;" points="353.688,54.442 353.688,48.035 351.133,48.035 351.133,31.696 386.587,31.696 
		386.587,54.442 	"/>
	<polygon id="Pendulum" style="fill:#FF3300;" points="140.438,71.835 162.536,51.84 171.743,40.53 177.876,46.288 183.695,53.859 
		188.22,57.963 195.431,64.362 200.864,59.254 206.592,65.078 169.203,103.619 	"/>
	<polygon id="Century_Room_B" style="fill:#3399FF;" points="93.454,268.277 93.454,210.83 54.245,229.869 54.245,256.897 
		57.801,256.897 57.801,268.631 	"/>
	<polygon style="opacity:0.26;fill:#3399FF;" points="195.075,197.506 195.075,220.267 159.156,220.267 159.156,219.911 
		155.593,220.267 138.53,220.267 138.53,206.396 102.256,206.396 93.454,210.83 93.454,268.277 139.241,268.277 139.241,235.559 
		148.843,235.559 148.843,250.673 205.745,250.673 205.745,239.293 209.656,239.293 209.656,255.296 226.727,255.296 
		226.727,252.984 240.595,252.984 240.595,197.506 	"/>
	<g id="Millennium">
		<polygon style="fill:#3399FF;" points="324.435,138.115 248.775,138.115 248.775,192.968 340.815,165.924 		"/>
		<line style="fill:#3399FF;" x1="240.595" y1="196.773" x2="240.595" y2="196.857"/>
		<polygon style="fill:#3399FF;" points="341.454,165.737 340.815,165.924 248.775,192.968 248.566,193.029 248.566,196.857 
			240.595,196.857 240.595,228.09 282.968,228.09 353.688,187.237 		"/>
	</g>
</g>
<g id="V&#xE6;gge">
	<polyline style="fill:none;stroke:#999999;stroke-width:1.3336;stroke-miterlimit:10;" points="195.431,169.411 195.431,154.83 
		167.692,154.83 167.692,158.386 153.112,158.386 153.112,172.967 81.629,209.953 81.629,217.065 	"/>
	<polyline style="fill:none;stroke:#999999;stroke-width:1.3336;stroke-miterlimit:10;" points="195.075,215.643 195.075,219.911 
		138.53,219.911 138.53,206.396 102.256,206.396 54.245,230.58 54.245,257.607 57.801,257.607 57.801,268.631 139.241,268.631 
		139.241,235.558 155.601,235.558 	"/>
	
		<line style="fill:none;stroke:#999999;stroke-width:1.3336;stroke-miterlimit:10;" x1="125.372" y1="206.396" x2="125.372" y2="187.319"/>
	
		<line style="fill:none;stroke:#999999;stroke-width:1.3336;stroke-miterlimit:10;" x1="167.692" y1="154.83" x2="167.692" y2="183.992"/>
	<polyline style="fill:none;stroke:#999999;stroke-width:1.3336;stroke-miterlimit:10;" points="184.762,219.911 184.762,187.904 
		195.075,187.904 195.075,192.172 	"/>
	
		<line style="fill:none;stroke:#999999;stroke-width:1.3336;stroke-miterlimit:10;" x1="184.406" y1="196.439" x2="195.075" y2="196.439"/>
	
		<line style="fill:none;stroke:#999999;stroke-width:1.3336;stroke-miterlimit:10;" x1="184.406" y1="203.196" x2="195.075" y2="203.196"/>
	
		<line style="fill:none;stroke:#999999;stroke-width:1.3336;stroke-miterlimit:10;" x1="184.406" y1="209.599" x2="195.075" y2="209.599"/>
	<polyline style="fill:none;stroke:#999999;stroke-width:1.3336;stroke-miterlimit:10;" points="148.843,235.558 148.843,251.207 
		154.533,251.207 	"/>
	
		<line style="fill:none;stroke:#999999;stroke-width:1.3336;stroke-miterlimit:10;" x1="157.734" y1="251.207" x2="205.745" y2="251.207"/>
	<polyline style="fill:none;stroke:#999999;stroke-width:1.3336;stroke-miterlimit:10;" points="180.138,251.207 180.138,283.036 
		93.454,283.036 93.454,269.166 	"/>
	<polyline style="fill:none;stroke:#999999;stroke-width:1.3336;stroke-miterlimit:10;" points="240.952,219.022 240.952,253.429 
		227.082,253.429 227.082,259.564 205.745,259.564 205.745,239.026 209.211,239.026 209.211,255.296 227.082,255.296 	"/>
	
		<line style="fill:none;stroke:#999999;stroke-width:1.3336;stroke-miterlimit:10;" x1="221.391" y1="178.302" x2="248.775" y2="178.302"/>
	
		<line style="fill:none;stroke:#999999;stroke-width:1.3336;stroke-miterlimit:10;" x1="248.775" y1="176.167" x2="248.775" y2="197.506"/>
	<polyline style="fill:none;stroke:#999999;stroke-width:1.3336;stroke-miterlimit:10;" points="217.48,169.411 210.011,169.411 
		210.011,151.629 249.131,151.629 249.131,138.115 324.525,138.115 353.688,186.837 283.271,228.09 240.834,228.09 	"/>
	
		<line style="fill:none;stroke:#999999;stroke-width:1.3336;stroke-miterlimit:10;" x1="249.131" y1="169.767" x2="249.131" y2="158.387"/>
	
		<line style="fill:none;stroke:#999999;stroke-width:1.3336;stroke-miterlimit:10;" x1="240.595" y1="211.376" x2="240.595" y2="197.506"/>
	
		<line style="fill:none;stroke:#999999;stroke-width:1.3336;stroke-miterlimit:10;" x1="236.329" y1="168.344" x2="249.131" y2="168.344"/>
	
		<line style="fill:none;stroke:#999999;stroke-width:1.3336;stroke-miterlimit:10;" x1="220.857" y1="169.411" x2="224.77" y2="169.411"/>
	
		<line style="fill:none;stroke:#999999;stroke-width:1.3336;stroke-miterlimit:10;" x1="227.438" y1="169.411" x2="231.35" y2="169.411"/>
	
		<line style="fill:none;stroke:#FFFFFF;stroke-width:0.5334;stroke-miterlimit:10;stroke-dasharray:2.1338,2.1338;" x1="292.163" y1="172.674" x2="292.163" y2="138.115"/>
	
		<line style="fill:none;stroke:#FFFFFF;stroke-width:0.5334;stroke-miterlimit:10;stroke-dasharray:2.1338,2.1338;" x1="292.163" y1="196.773" x2="292.163" y2="222.604"/>
	
		<line style="fill:none;stroke:#999999;stroke-width:1.3336;stroke-miterlimit:10;" x1="145.999" y1="66.989" x2="162.536" y2="51.519"/>
	<polyline style="fill:none;stroke:#999999;stroke-width:1.3336;stroke-miterlimit:10;" points="165.736,46.718 172.67,38.716 
		170.537,36.049 	"/>
	
		<line style="fill:none;stroke:#999999;stroke-width:1.3336;stroke-miterlimit:10;" x1="171.42" y1="40.158" x2="174.804" y2="44.051"/>
	<polyline style="fill:none;stroke:#999999;stroke-width:1.3336;stroke-miterlimit:10;" points="182.272,42.104 177.649,46.006 
		183.695,53.475 	"/>
	<polyline style="fill:none;stroke:#999999;stroke-width:1.3336;stroke-miterlimit:10;" points="187.962,57.742 195.431,64.144 
		202.544,57.742 184.406,31.425 	"/>
	<polyline style="fill:none;stroke:#999999;stroke-width:1.3336;stroke-miterlimit:10;" points="200.864,59.254 206.811,64.854 
		168.758,103.619 	"/>
	<path style="fill:none;stroke:#999999;stroke-width:1.3336;stroke-miterlimit:10;" d="M163.78,106.819v-9.602l-23.473-24.894
		l-2.133,2.133C138.174,74.457,145.642,91.171,163.78,106.819z"/>
	<polyline style="fill:none;stroke:#999999;stroke-width:1.3336;stroke-miterlimit:10;" points="310.3,47.785 270.825,47.785 
		270.825,61.655 220.857,61.655 220.857,102.73 270.825,102.73 270.825,77.125 317.235,77.125 	"/>
	
		<line style="fill:none;stroke:#999999;stroke-width:1.3336;stroke-miterlimit:10;" x1="319.369" y1="47.785" x2="340.173" y2="47.785"/>
	
		<line style="fill:none;stroke:#999999;stroke-width:1.3336;stroke-miterlimit:10;" x1="344.441" y1="47.785" x2="356.177" y2="47.785"/>
	<polyline style="fill:none;stroke:#999999;stroke-width:1.3336;stroke-miterlimit:10;" points="350.841,47.79 350.841,31.425 
		356.71,31.425 	"/>
	<polyline style="fill:none;stroke:#999999;stroke-width:1.3336;stroke-miterlimit:10;" points="353.688,51.519 353.688,80.858 
		322.569,80.858 322.569,54.187 	"/>
	<polyline style="fill:none;stroke:#999999;stroke-width:1.3336;stroke-miterlimit:10;" points="322.569,66.189 317.235,66.189 
		317.235,87.794 339.107,87.794 339.107,81.436 	"/>
	<polyline style="fill:none;stroke:#999999;stroke-width:1.3336;stroke-miterlimit:10;" points="359.378,31.425 387.119,31.425 
		387.119,54.72 353.776,54.72 	"/>
	<polyline style="fill:none;stroke:#999999;stroke-width:1.3336;stroke-miterlimit:10;" points="99.766,121.045 110.791,112.51 
		126.438,134.204 36.107,201.418 20.815,179.013 27.572,174.212 	"/>
	<polyline style="fill:none;stroke:#999999;stroke-width:1.3336;stroke-miterlimit:10;" points="41.797,164.788 35.04,169.411 
		50.144,190.974 	"/>
	<polyline style="fill:none;stroke:#999999;stroke-width:1.3336;stroke-miterlimit:10;" points="53.45,156.674 46.693,161.296 
		61.797,182.859 	"/>
	<polyline style="fill:none;stroke:#999999;stroke-width:1.3336;stroke-miterlimit:10;" points="67.261,147.22 60.504,151.842 
		75.095,172.674 	"/>
	<polyline style="fill:none;stroke:#999999;stroke-width:1.3336;stroke-miterlimit:10;" points="18.77,175.546 15.837,170.744 
		65.713,135.271 68.648,139.805 	"/>
	
		<line style="fill:none;stroke:#999999;stroke-width:1.3336;stroke-miterlimit:10;" x1="71.848" y1="141.138" x2="84.917" y2="158.387"/>
	<polyline style="fill:none;stroke:#999999;stroke-width:1.3336;stroke-miterlimit:10;" points="75.424,145.857 83.851,140.071 
		80.117,134.47 76.116,137.671 	"/>
	
		<line style="fill:none;stroke:#999999;stroke-width:1.3336;stroke-miterlimit:10;" x1="94.52" y1="132.603" x2="114.297" y2="117.371"/>
	<polyline style="fill:none;stroke:#999999;stroke-width:1.3336;stroke-miterlimit:10;" points="99.321,128.335 96.121,123.268 
		91.319,126.468 95.113,132.146 	"/>
	<polyline style="fill:none;stroke:#999999;stroke-width:1.3336;stroke-miterlimit:10;" points="112.519,114.907 124.393,103.619 
		139.596,120.067 126.438,134.204 	"/>
	<path style="fill:none;stroke:#999999;stroke-width:1.3336;stroke-miterlimit:10;" d="M126.057,95.795l0.381,5.067
		c0,0,11.825,4.268,14.492,15.47c4.801,0.267,4.801,0.267,4.801,0.267S142.125,98.462,126.057,95.795z"/>
	
		<line style="fill:none;stroke:#999999;stroke-width:1.3336;stroke-miterlimit:10;" x1="211.555" y1="196.805" x2="248.175" y2="196.805"/>
	
		<line style="fill:none;stroke:#999999;stroke-width:1.3336;stroke-miterlimit:10;" x1="93.454" y1="268.277" x2="93.454" y2="248.717"/>
	
		<line style="fill:none;stroke:#999999;stroke-width:1.3336;stroke-miterlimit:10;" x1="93.454" y1="237.514" x2="93.454" y2="211.376"/>
</g>
<g id="Trapper">
	<path style="fill:#999999;" d="M223.348,178.302v7.402h15.697v-7.402H223.348z M226.613,184.757h-1.04v-6.11h1.04V184.757z
		 M228.991,184.757h-1.04v-6.11h1.04V184.757z M231.369,184.757h-1.04v-6.11h1.04V184.757z M233.746,184.757h-1.04v-6.11h1.04
		V184.757z M236.124,184.757h-1.039v-6.11h1.039V184.757z"/>
	<path style="fill:#999999;" d="M223.348,187.237v9.536h15.697v-9.536H223.348z M226.613,195.548h-1.04v-7.178h1.04V195.548z
		 M228.991,195.548h-1.04v-7.178h1.04V195.548z M231.369,195.548h-1.04v-7.178h1.04V195.548z M233.746,195.548h-1.04v-7.178h1.04
		V195.548z M236.124,195.548h-1.039v-7.178h1.039V195.548z"/>
</g>
<g id="Tekst">
	<text transform="matrix(1 0 0 1 253.9702 246.3184)" style="font-family:'MyriadPro-Regular'; font-size:16.5616;">2nd floor</text>
	<g>
		<text transform="matrix(1 0 0 1 361.2954 79.0459)" style="font-family:'MyriadPro-Regular'; font-size:16.5616;">1st floor</text>
	</g>
	<text transform="matrix(1 0 0 1 255.9482 185.9487)" style="fill:#FFFFFF; font-family:'MyriadPro-Bold'; font-size:9.2713;">Millennium Ballroom</text>
	<text transform="matrix(1 0 0 1 353.0645 45.3062)" style="fill:#FFFFFF; font-family:'MyriadPro-Bold'; font-size:9.2713;">Annum</text>
	<g>
		<text transform="matrix(1 0 0 1 164.8472 234.4937)" style="fill:#FFFFFF; font-family:'MyriadPro-Bold'; font-size:9.2713;">Time Square</text>
	</g>
	<text transform="matrix(1 0 0 1 145.7319 272.9014)" style="fill:#999999; font-family:'MyriadPro-Regular'; font-size:6.4014;">Terrace</text>
	<text transform="matrix(0 -1 1 0 205.7437 147.2197)" style="font-family:'MyriadPro-Regular'; font-size:9.2713;">Sequence Skyway</text>
	<text transform="matrix(1 0 0 1 56.8906 251.7778)"><tspan x="0" y="0" style="fill:#FFFFFF; font-family:'MyriadPro-Bold'; font-size:9.2713;">Century </tspan><tspan x="5.363" y="11.125" style="fill:#FFFFFF; font-family:'MyriadPro-Bold'; font-size:9.2713;">Room</tspan></text>
	<text transform="matrix(1 0 0 1 149.3179 74.2803)" style="fill:#FFFFFF; font-family:'MyriadPro-Bold'; font-size:9.2713;">Pendulum</text>
	<text transform="matrix(1 0 0 1 265.3823 169.7676)" style="fill:#FFFFFF; font-family:'MyriadPro-Regular'; font-size:13.3918;">A</text>
	<text transform="matrix(1 0 0 1 306.5991 169.4121)" style="fill:#FFFFFF; font-family:'MyriadPro-Regular'; font-size:13.3918;">B</text>
	<text transform="matrix(1 0 0 1 69.1821 242.3535)" style="fill:#FFFFFF; font-family:'MyriadPro-Regular'; font-size:13.3918;">B</text>
</g>
</svg>
