<?xml version="1.0" encoding="utf-8"?>
<!-- Generator: Adobe Illustrator 15.0.0, SVG Export Plug-In . SVG Version: 6.00 Build 0)  -->
<!DOCTYPE svg PUBLIC "-//W3C//DTD SVG 1.1//EN" "http://www.w3.org/Graphics/SVG/1.1/DTD/svg11.dtd">
<svg version="1.1" tagId="svg_map" xmlns="http://www.w3.org/2000/svg" xmlns:xlink="http://www.w3.org/1999/xlink" x="0px" y="0px"
	 width="1000.279px" height="1000.891px" viewBox="0 0 1000.279 1000.891" enable-background="new 0 0 1000.279 1000.891"
	 xml:space="preserve">
<rect x="19.059" y="27.019" fill="#FFFFFF" stroke="#000000" stroke-miterlimit="10" width="488.081" height="194.427"/>
<rect tagId="_x31_" x="46.059" y="52.941" fill="#FFFFFF" stroke="#000000" stroke-miterlimit="10" width="79.081" height="70.504"/>
<rect tagId="_x32_" x="129.059" y="52.941" fill="#FFFFFF" stroke="#000000" stroke-miterlimit="10" width="79.081" height="70.504"/>
<rect tagId="_x33_" x="213.059" y="52.941" fill="#FFFFFF" stroke="#000000" stroke-miterlimit="10" width="79.081" height="70.504"/>
<rect tagId="_x34_" x="297.6" y="52.941" fill="#FFFFFF" stroke="#000000" stroke-miterlimit="10" width="79.081" height="70.504"/>
<rect tagId="_x35_" x="382.059" y="52.941" fill="#FFFFFF" stroke="#000000" stroke-miterlimit="10" width="79.081" height="70.504"/>
<rect tagId="_x36_" x="46.059" y="138.941" fill="#FFFFFF" stroke="#000000" stroke-miterlimit="10" width="79.081" height="70.504"/>
<rect tagId="_x37_" x="129.059" y="138.941" fill="#FFFFFF" stroke="#000000" stroke-miterlimit="10" width="79.081" height="70.504"/>
<rect tagId="_x38_" x="213.059" y="138.941" fill="#FFFFFF" stroke="#000000" stroke-miterlimit="10" width="79.081" height="70.504"/>
<rect tagId="_x39_" x="297.6" y="138.941" fill="#FFFFFF" stroke="#000000" stroke-miterlimit="10" width="79.081" height="70.504"/>
<rect tagId="_x31_" x="382.059" y="138.941" fill="#FFFFFF" stroke="#000000" stroke-miterlimit="10" width="79.081" height="70.504"/>

<text tagId="_x31_" transform="matrix(1.0333 0 0 1 70.1409 110.5227)" font-family="'SimSun'" font-size="15">山竹</text>
<text tagId="_x32_" transform="matrix(1.0333 0 0 1 151.1409 110.5227)" font-family="'SimSun'" font-size="15">山莓</text>
<text tagId="_x33_" transform="matrix(1.0333 0 0 1 240.1409 110.5227)" font-family="'SimSun'" font-size="15">石榴</text>
<text tagId="_x34_" transform="matrix(1.0333 0 0 1 319.1414 110.5227)" font-family="'SimSun'" font-size="15">酸枣</text>
<text tagId="_x35_" transform="matrix(1.0333 0 0 1 410.1414 110.5227)" font-family="'SimSun'" font-size="15">西瓜</text>
<text tagId="_x36_" transform="matrix(1.0333 0 0 1 62.1409 194.1926)" font-family="'SimSun'" font-size="15">菠萝莓</text>
<text tagId="_x37_" transform="matrix(1.0333 0 0 1 143.1409 194.1926)" font-family="'SimSun'" font-size="15">火龙果</text>
<text tagId="_x38_" transform="matrix(1.0333 0 0 1 229.1409 194.1926)" font-family="'SimSun'" font-size="15">金星果</text>
<text tagId="_x39_" transform="matrix(1.0333 0 0 1 306.1414 194.1926)" font-family="'SimSun'" font-size="15">白水苹果</text>
<text tagId="_x31_" transform="matrix(1.0333 0 0 1 390.1414 194.1926)" font-family="'SimSun'" font-size="15">富士苹果</text>

</svg>
