<?xml version="1.0" encoding="utf-8"?>
<!-- Generator: Adobe Illustrator 15.0.0, SVG Export Plug-In . SVG Version: 6.00 Build 0)  -->
<!DOCTYPE svg PUBLIC "-//W3C//DTD SVG 1.1//EN" "http://www.w3.org/Graphics/SVG/1.1/DTD/svg11.dtd">
<svg version="1.1" tagId="svg_map" xmlns="http://www.w3.org/2000/svg" xmlns:xlink="http://www.w3.org/1999/xlink" x="0px" y="0px"
	 width="1000.279px" height="1000.891px" viewBox="0 0 1000.279 1000.891" enable-background="new 0 0 1000.279 1000.891"
	 xml:space="preserve">

<rect tagId="_x31_" x="46.059" y="52.941" fill="#FFFFFF" stroke="#000000" stroke-miterlimit="10" width="79.081" height="70.504"/>
<rect tagId="_x32_" x="129.059" y="52.941" fill="#FFFFFF" stroke="#000000" stroke-miterlimit="10" width="79.081" height="70.504"/>
<rect tagId="_x33_" x="213.059" y="52.941" fill="#FFFFFF" stroke="#000000" stroke-miterlimit="10" width="79.081" height="70.504"/>
<rect tagId="_x34_" x="297.6" y="52.941" fill="#FFFFFF" stroke="#000000" stroke-miterlimit="10" width="79.081" height="70.504"/>
<rect tagId="_x35_" x="382.059" y="52.941" fill="#FFFFFF" stroke="#000000" stroke-miterlimit="10" width="79.081" height="70.504"/>
<rect tagId="_x36_" x="46.059" y="138.941" fill="#FFFFFF" stroke="#000000" stroke-miterlimit="10" width="79.081" height="70.504"/>
<rect tagId="_x37_" x="129.059" y="138.941" fill="#FFFFFF" stroke="#000000" stroke-miterlimit="10" width="79.081" height="70.504"/>
<rect tagId="_x38_" x="213.059" y="138.941" fill="#FFFFFF" stroke="#000000" stroke-miterlimit="10" width="79.081" height="70.504"/>
<rect tagId="_x39_" x="297.6" y="138.941" fill="#FFFFFF" stroke="#000000" stroke-miterlimit="10" width="79.081" height="70.504"/>
<rect tagId="_x41_" x="382.059" y="138.941" fill="#FFFFFF" stroke="#000000" stroke-miterlimit="10" width="79.081" height="70.504"/>

<text tagId="_x31_" transform="matrix(1.0333 0 0 1 70.1409 110.5227)" font-family="'SimSun'" font-size="15">山竹</text>
<text tagId="_x32_" transform="matrix(1.0333 0 0 1 151.1409 110.5227)" font-family="'SimSun'" font-size="15">山莓</text>
<text tagId="_x33_" transform="matrix(1.0333 0 0 1 240.1409 110.5227)" font-family="'SimSun'" font-size="15">石榴</text>
<text tagId="_x34_" transform="matrix(1.0333 0 0 1 319.1414 110.5227)" font-family="'SimSun'" font-size="15">酸枣</text>
<text tagId="_x35_" transform="matrix(1.0333 0 0 1 410.1414 110.5227)" font-family="'SimSun'" font-size="15">西瓜</text>
<text tagId="_x36_" transform="matrix(1.0333 0 0 1 62.1409 194.1926)" font-family="'SimSun'" font-size="15">菠萝莓</text>
<text tagId="_x37_" transform="matrix(1.0333 0 0 1 143.1409 194.1926)" font-family="'SimSun'" font-size="15">火龙果</text>
<text tagId="_x38_" transform="matrix(1.0333 0 0 1 229.1409 194.1926)" font-family="'SimSun'" font-size="15">金星果</text>
<text tagId="_x39_" transform="matrix(1.0333 0 0 1 306.1414 194.1926)" font-family="'SimSun'" font-size="15">白水苹果</text>
<text tagId="_x41_" transform="matrix(1.0333 0 0 1 390.1414 194.1926)" font-family="'SimSun'" font-size="15">富士苹果</text>

<rect tagId="_x31__3_" x="46.059" y="268.649" fill="#FFFFFF" stroke="#000000" stroke-miterlimit="10" width="79.081" height="70.504"/>
<rect tagId="_x32__3_" x="129.059" y="268.649" fill="#FFFFFF" stroke="#000000" stroke-miterlimit="10" width="79.081" height="70.504"/>
<rect tagId="_x33__3_" x="213.059" y="268.649" fill="#FFFFFF" stroke="#000000" stroke-miterlimit="10" width="79.081" height="70.504"/>
<rect tagId="_x34__3_" x="297.6" y="268.649" fill="#FFFFFF" stroke="#000000" stroke-miterlimit="10" width="79.081" height="70.504"/>
<rect tagId="_x35__3_" x="382.059" y="268.649" fill="#FFFFFF" stroke="#000000" stroke-miterlimit="10" width="79.081" height="70.504"/>
<rect tagId="_x36__3_" x="46.059" y="354.649" fill="#FFFFFF" stroke="#000000" stroke-miterlimit="10" width="79.081" height="70.503"/>
<rect tagId="_x37__3_" x="129.059" y="354.649" fill="#FFFFFF" stroke="#000000" stroke-miterlimit="10" width="79.081" height="70.503"/>
<rect tagId="_x38__3_" x="213.059" y="354.649" fill="#FFFFFF" stroke="#000000" stroke-miterlimit="10" width="79.081" height="70.503"/>
<rect tagId="_x39__3_" x="297.6" y="354.649" fill="#FFFFFF" stroke="#000000" stroke-miterlimit="10" width="79.081" height="70.503"/>
<rect tagId="_x31_0_3_" x="382.059" y="354.649" fill="#FFFFFF" stroke="#000000" stroke-miterlimit="10" width="79.081" height="70.503"/>

<text tagId="_x31__3_" transform="matrix(1.0333 0 0 1 62.1409 312.4836)" enable-background="new    "><tspan x="0" y="0" font-family="'SimSun'" font-size="15">兰州冬</tspan><tspan x="0" y="18" font-family="'SimSun'" font-size="15">果梨</tspan></text>
<text tagId="_x32__3_" transform="matrix(1.0333 0 0 1 151.1409 313.2307)" enable-background="new    "><tspan x="0" y="0" font-family="'SimSun'" font-size="15"> 瑞士</tspan><tspan x="0" y="18" font-family="'SimSun'" font-size="15">红苹果</tspan></text>
<text tagId="_x33__3_" transform="matrix(1.0333 0 0 1 229.1409 312.4836)" enable-background="new    "><tspan x="0" y="0" font-family="'SimSun'" font-size="15">紫珍香</tspan><tspan x="0" y="18" font-family="'SimSun'" font-size="15">葡萄</tspan></text>
<text tagId="_x34__3_" transform="matrix(1.0333 0 0 1 306.1414 313.1282)" enable-background="new    "><tspan x="0" y="0" font-family="'SimSun'" font-size="15">  超级</tspan><tspan x="0" y="18" font-family="'SimSun'" font-size="15">无核葡萄</tspan></text>
<text tagId="_x35__3_" transform="matrix(1.0333 0 0 1 398.1414 312.4836)" enable-background="new    "><tspan x="0" y="0" font-family="'SimSun'" font-size="15">凤凰山</tspan><tspan x="0" y="18" font-family="'SimSun'" font-size="15">水蜜桃</tspan></text>
<text tagId="_x36__3_" transform="matrix(1.0333 0 0 1 70.1409 397.1536)" enable-background="new    "><tspan x="0" y="0" font-family="'SimSun'" font-size="15">通山</tspan><tspan x="0" y="18" font-family="'SimSun'" font-size="15">五号</tspan></text>
<text tagId="_x37__3_" transform="matrix(1.0333 0 0 1 151.1409 397.9006)" enable-background="new    "><tspan x="0" y="0" font-family="'SimSun'" font-size="15">南山</tspan><tspan x="0" y="18" font-family="'SimSun'" font-size="15">鲜荔枝</tspan></text>
<text tagId="_x38__3_" transform="matrix(1.0333 0 0 1 229.1409 412.8293)" font-family="'SimSun'" font-size="15">砀山梨 </text>
<text tagId="_x39__3_" transform="matrix(1.0333 0 0 1 312.1414 397.1536)" enable-background="new    "><tspan x="0" y="0" font-family="'SimSun'" font-size="15">山毛榉</tspan><tspan x="0" y="18" font-family="'SimSun'" font-size="15">坚果</tspan></text>
<text tagId="_x31_0_3_" transform="matrix(1.0333 0 0 1 398.1414 412.8293)" font-family="'SimSun'" font-size="15">槟榔子</text>

<text transform="matrix(1 0 0 1 74.1409 70.4456)" font-family="'SimSun'" font-size="12">1001</text>
<text transform="matrix(1 0 0 1 70.1409 158.4456)" font-family="'SimSun'" font-size="12">1006</text>
<text transform="matrix(1 0 0 1 151.1409 158.4456)" font-family="'SimSun'" font-size="12">1007</text>
<text transform="matrix(1 0 0 1 240.1409 155.4456)" font-family="'SimSun'" font-size="12">1008</text>
<text transform="matrix(1 0 0 1 324.1409 155.4456)" font-family="'SimSun'" font-size="12">1009</text>
<text transform="matrix(1 0 0 1 410.1409 155.4456)" font-family="'SimSun'" font-size="12">10010</text>
<text transform="matrix(1 0 0 1 405.1409 286.4456)" font-family="'SimSun'" font-size="12">10015</text>
<text transform="matrix(1 0 0 1 319.1409 286.4456)" font-family="'SimSun'" font-size="12">10014</text>
<text transform="matrix(1 0 0 1 234.1409 286.4456)" font-family="'SimSun'" font-size="12">10013</text>
<text transform="matrix(1 0 0 1 151.1409 286.4456)" font-family="'SimSun'" font-size="12">10012</text>
<text transform="matrix(1 0 0 1 70.1409 286.4456)" font-family="'SimSun'" font-size="12">10011</text>
<text transform="matrix(1 0 0 1 70.1409 371.4456)" font-family="'SimSun'" font-size="12">10016</text>
<text transform="matrix(1 0 0 1 156.1409 371.4456)" font-family="'SimSun'" font-size="12">10017</text>
<text transform="matrix(1 0 0 1 244.1409 371.4456)" font-family="'SimSun'" font-size="12">10018</text>
<text transform="matrix(1 0 0 1 410.1409 371.4456)" font-family="'SimSun'" font-size="12">10020</text>
<text transform="matrix(1 0 0 1 319.1409 371.4456)" font-family="'SimSun'" font-size="12">10019</text>
<text transform="matrix(1 0 0 1 156.1409 70.4456)" font-family="'SimSun'" font-size="12">1002</text>
<text transform="matrix(1 0 0 1 240.1409 70.4456)" font-family="'SimSun'" font-size="12">1003</text>
<text transform="matrix(1 0 0 1 319.1409 70.4456)" font-family="'SimSun'" font-size="12">1004</text>
<text transform="matrix(1 0 0 1 410.1409 70.4456)" font-family="'SimSun'" font-size="12">1005</text>

<rect tagId="_x31__5_" x="534.14" y="52.941" fill="#FFFFFF" stroke="#000000" stroke-miterlimit="10" width="79.081" height="70.504"/>
<rect tagId="_x32__5_" x="617.14" y="52.941" fill="#FFFFFF" stroke="#000000" stroke-miterlimit="10" width="79.081" height="70.504"/>
<rect tagId="_x33__5_" x="701.14" y="52.941" fill="#FFFFFF" stroke="#000000" stroke-miterlimit="10" width="79.081" height="70.504"/>
<rect tagId="_x34__5_" x="785.681" y="52.941" fill="#FFFFFF" stroke="#000000" stroke-miterlimit="10" width="79.081" height="70.504"/>
<rect tagId="_x35__5_" x="870.14" y="52.941" fill="#FFFFFF" stroke="#000000" stroke-miterlimit="10" width="79.081" height="70.504"/>
<rect tagId="_x36__5_" x="534.14" y="138.941" fill="#FFFFFF" stroke="#000000" stroke-miterlimit="10" width="79.081" height="70.504"/>
<rect tagId="_x37__5_" x="617.14" y="138.941" fill="#FFFFFF" stroke="#000000" stroke-miterlimit="10" width="79.081" height="70.504"/>
<rect tagId="_x38__5_" x="701.14" y="138.941" fill="#FFFFFF" stroke="#000000" stroke-miterlimit="10" width="79.081" height="70.504"/>
<rect tagId="_x39__5_" x="785.681" y="138.941" fill="#FFFFFF" stroke="#000000" stroke-miterlimit="10" width="79.081" height="70.504"/>
<rect tagId="_x31_0_5_" x="870.14" y="138.941" fill="#FFFFFF" stroke="#000000" stroke-miterlimit="10" width="79.081" height="70.504"/>

<text tagId="_x31__5_" transform="matrix(1.0333 0 0 1 545.2214 110.5227)" font-family="'SimSun'" font-size="15">水果大全</text>
<text tagId="_x32__5_" transform="matrix(1.0333 0 0 1 639.2214 110.5227)" font-family="'SimSun'" font-size="15">果缤纷</text>
<text tagId="_x33__5_" transform="matrix(1.0333 0 0 1 705.9167 110.5227)" font-family="'SimSun'" font-size="15">农夫果园</text>
<text tagId="_x34__5_" transform="matrix(1.0333 0 0 1 794.2224 110.5227)" font-family="'SimSun'" font-size="15">私房蔬果</text>
<text tagId="_x35__5_" transform="matrix(1.0333 0 0 1 890.9988 110.5227)" font-family="'SimSun'" font-size="15">运水果</text>
<text tagId="_x36__5_" transform="matrix(1.0333 0 0 1 538.9167 194.1926)" font-family="'SimSun'" font-size="15">绿野仙踪</text>
<text tagId="_x37__5_" transform="matrix(1.0333 0 0 1 628.9167 184.1926)" enable-background="new    "><tspan x="0" y="0" font-family="'SimSun'" font-size="15">  鲜之</tspan><tspan x="0" y="18" font-family="'SimSun'" font-size="15">每日see</tspan></text>
<text tagId="_x38__5_" transform="matrix(1.0333 0 0 1 705.9167 194.1926)" font-family="'SimSun'" font-size="15">田园蔬果</text>
<text tagId="_x39__5_" transform="matrix(1.0333 0 0 1 794.2224 194.1926)" font-family="'SimSun'" font-size="15">优滋良果</text>
<text tagId="_x31_0_5_" transform="matrix(1.0333 0 0 1 890.9988 194.1926)" font-family="'SimSun'" font-size="15">一口果</text>

<text transform="matrix(1 0 0 1 562.2214 70.4456)" font-family="'SimSun'" font-size="12">10021</text>
<text transform="matrix(1 0 0 1 558.2214 158.4456)" font-family="'SimSun'" font-size="12">10026</text>
<text transform="matrix(1 0 0 1 639.2214 158.4456)" font-family="'SimSun'" font-size="12">10027</text>
<text transform="matrix(1 0 0 1 728.2214 155.4456)" font-family="'SimSun'" font-size="12">10028</text>
<text transform="matrix(1 0 0 1 812.2214 155.4456)" font-family="'SimSun'" font-size="12">10029</text>
<text transform="matrix(1 0 0 1 898.2214 155.4456)" font-family="'SimSun'" font-size="12">10030</text>
<text transform="matrix(1 0 0 1 644.2214 70.4456)" font-family="'SimSun'" font-size="12">10022</text>
<text transform="matrix(1 0 0 1 728.2214 70.4456)" font-family="'SimSun'" font-size="12">10023</text>
<text transform="matrix(1 0 0 1 807.2214 70.4456)" font-family="'SimSun'" font-size="12">10024</text>
<text transform="matrix(1 0 0 1 898.2214 70.4456)" font-family="'SimSun'" font-size="12">10025</text>

<rect tagId="_x31__7_" x="538.917" y="268.649" fill="#FFFFFF" stroke="#000000" stroke-miterlimit="10" width="79.081" height="70.504"/>
<rect tagId="_x32__7_" x="621.917" y="268.649" fill="#FFFFFF" stroke="#000000" stroke-miterlimit="10" width="79.081" height="70.504"/>
<rect tagId="_x33__7_" x="705.917" y="268.649" fill="#FFFFFF" stroke="#000000" stroke-miterlimit="10" width="79.081" height="70.504"/>
<rect tagId="_x34__7_" x="790.458" y="268.649" fill="#FFFFFF" stroke="#000000" stroke-miterlimit="10" width="79.081" height="70.504"/>
<rect tagId="_x35__7_" x="874.917" y="268.649" fill="#FFFFFF" stroke="#000000" stroke-miterlimit="10" width="79.081" height="70.504"/>
<rect tagId="_x36__7_" x="538.917" y="354.649" fill="#FFFFFF" stroke="#000000" stroke-miterlimit="10" width="79.081" height="70.503"/>
<rect tagId="_x37__7_" x="621.917" y="354.649" fill="#FFFFFF" stroke="#000000" stroke-miterlimit="10" width="79.081" height="70.503"/>
<rect tagId="_x38__7_" x="705.917" y="354.649" fill="#FFFFFF" stroke="#000000" stroke-miterlimit="10" width="79.081" height="70.503"/>
<rect tagId="_x39__7_" x="790.458" y="354.649" fill="#FFFFFF" stroke="#000000" stroke-miterlimit="10" width="79.081" height="70.503"/>
<rect tagId="_x31_0_7_" x="874.917" y="354.649" fill="#FFFFFF" stroke="#000000" stroke-miterlimit="10" width="79.081" height="70.503"/>

<text tagId="_x31__7_" transform="matrix(1.0333 0 0 1 554.9988 312.4836)" enable-background="new    "><tspan x="0" y="0" font-family="'SimSun'" font-size="15">农家乐</tspan><tspan x="0" y="18" font-family="'SimSun'" font-size="15">水果</tspan></text>
<text tagId="_x32__7_" transform="matrix(1.1802 0 0 1 628.9167 320.7166)" font-family="'SimSun'" font-size="13.1332"> 开心水果</text>
<text tagId="_x33__7_" transform="matrix(1.0333 0 0 1 715.9988 311.7166)" enable-background="new    "><tspan x="0" y="0" font-family="'SimSun'" font-size="15">彩虹水果</tspan><tspan x="0" y="18" font-family="'SimSun'" font-size="15">葡萄</tspan></text>
<text tagId="_x34__7_" transform="matrix(1.0333 0 0 1 798.9988 313.1282)" enable-background="new    "><tspan x="0" y="0" font-family="'SimSun'" font-size="15">水果篮子</tspan><tspan x="0" y="18" font-family="'SimSun'" font-size="15">无核葡萄</tspan></text>
<text tagId="_x35__7_" transform="matrix(1.0333 0 0 1 890.9988 312.4836)" enable-background="new    "><tspan x="0" y="0" font-family="'SimSun'" font-size="15">果然美</tspan><tspan x="0" y="18" font-family="'SimSun'" font-size="15">水蜜桃</tspan></text>
<text tagId="_x36__7_" transform="matrix(1.0333 0 0 1 562.9988 397.1536)" enable-background="new    "><tspan x="0" y="0" font-family="'SimSun'" font-size="15">瓜果</tspan><tspan x="0" y="18" font-family="'SimSun'" font-size="15">五号</tspan></text>
<text tagId="_x37__7_" transform="matrix(1.0333 0 0 1 639.2214 406.5271)" font-family="'SimSun'" font-size="15"> 果真好</text>
<text tagId="_x38__7_" transform="matrix(1.0333 0 0 1 740.6804 412.8293)" font-family="'SimSun'" font-size="15">集果</text>
<text tagId="_x39__7_" transform="matrix(1.0333 0 0 1 804.9988 397.1536)" enable-background="new    "><tspan x="0" y="0" font-family="'SimSun'" font-size="15">山毛榉</tspan><tspan x="0" y="18" font-family="'SimSun'" font-size="15">坚果</tspan></text>
<text tagId="_x31_0_7_" transform="matrix(1.0333 0 0 1 890.9988 412.8293)" font-family="'SimSun'" font-size="15">飞果行</text>

<text transform="matrix(1 0 0 1 897.9988 286.4456)" font-family="'SimSun'" font-size="12">10035</text>
<text transform="matrix(1 0 0 1 811.9988 286.4456)" font-family="'SimSun'" font-size="12">10034</text>
<text transform="matrix(1 0 0 1 726.9988 286.4456)" font-family="'SimSun'" font-size="12">10033</text>
<text transform="matrix(1 0 0 1 643.9988 286.4456)" font-family="'SimSun'" font-size="12">10032</text>
<text transform="matrix(1 0 0 1 562.9988 286.4456)" font-family="'SimSun'" font-size="12">10031</text>
<text transform="matrix(1 0 0 1 562.9988 371.4456)" font-family="'SimSun'" font-size="12">10036</text>
<text transform="matrix(1 0 0 1 648.9988 371.4456)" font-family="'SimSun'" font-size="12">10037</text>
<text transform="matrix(1 0 0 1 736.9988 371.4456)" font-family="'SimSun'" font-size="12">10038</text>
<text transform="matrix(1 0 0 1 902.9988 371.4456)" font-family="'SimSun'" font-size="12">10040</text>
<text transform="matrix(1 0 0 1 811.9988 371.4456)" font-family="'SimSun'" font-size="12">10039</text>
</svg>
